# File created by Blade
# Date/Time:  Mon Sep 22 16:45:27 2014
# Frame Rate: 120.000 fps
#------------------------------------------------------
:FULLY-SPECIFIED
:DEGREES
2565
root 5.067758 38.248660 0.556874 2.039710 23.744445 37.640209
RightUpLeg 6.077125 -11.548698 -31.119928
RightLeg 25.346501 -0.000000 -0.000000
RightFoot -31.450474 -29.771366 19.245098
RightToeBase 7.963830 -0.000000 -0.000000
LeftUpLeg -52.020595 33.739322 2.536979
LeftLeg 111.622670 -0.000000 -0.000000
LeftFoot 19.597595 19.956189 -20.182279
LeftToeBase -1.161063 -0.000000 0.000000
Spine 21.507658 -5.578648 -22.282081
RightShoulder -1.280925 -14.030174 -22.093453
RightArm 12.856261 34.733253 41.836213
RightForeArm -10.719706 -0.000000 118.797799
RightHand -7.144688 -0.000000 7.449672
RightHandThumb1 -24.326973 -0.000000 -32.862282
LeftShoulder -28.646003 36.070581 -11.873408
LeftArm 41.956484 13.385174 -52.627352
LeftForeArm 36.801676 -0.000000 103.558879
LeftHand -11.358072 0.000000 -15.505483
LeftHandThumb1 -26.253704 0.000000 33.147579
Head 7.357872 -8.294729 -14.223357
2566
root 5.087107 38.260236 0.515852 2.186493 23.727071 37.798009
RightUpLeg 5.967485 -11.519535 -31.281860
RightLeg 25.305983 -0.000000 -0.000000
RightFoot -31.401789 -29.838745 19.196149
RightToeBase 8.005583 -0.000000 -0.000000
LeftUpLeg -51.805094 33.654656 2.747217
LeftLeg 111.653396 -0.000000 -0.000000
LeftFoot 19.724721 19.938344 -20.004838
LeftToeBase -1.488056 -0.000000 0.000000
Spine 21.516997 -5.535391 -22.313198
RightShoulder -1.245306 -13.906112 -22.201644
RightArm 12.798529 34.811488 41.594425
RightForeArm -11.561474 -0.000000 118.779033
RightHand -7.356848 -0.000000 8.096509
RightHandThumb1 -24.326973 -0.000000 -32.862282
LeftShoulder -28.638705 36.024228 -11.828364
LeftArm 41.915825 13.373674 -52.791455
LeftForeArm 36.719072 -0.000000 103.617746
LeftHand -11.310010 -0.000000 -15.409294
LeftHandThumb1 -26.253704 0.000000 33.147579
Head 7.155891 -8.383993 -14.219267
2567
root 5.109845 38.273575 0.473157 2.356705 23.721194 37.958377
RightUpLeg 5.854079 -11.541163 -31.457665
RightLeg 25.245821 -0.000000 -0.000000
RightFoot -31.342608 -29.896663 19.159929
RightToeBase 8.167048 -0.000000 -0.000000
LeftUpLeg -51.600113 33.514776 2.953360
LeftLeg 111.691285 -0.000000 -0.000000
LeftFoot 19.744831 19.965037 -20.011956
LeftToeBase -1.536342 -0.000000 0.000000
Spine 21.500274 -5.536203 -22.329980
RightShoulder -1.215873 -13.827004 -22.309127
RightArm 12.824167 34.896066 41.411906
RightForeArm -12.079724 0.000000 118.696925
RightHand -7.363993 0.000000 8.463045
RightHandThumb1 -24.326973 -0.000000 -32.862282
LeftShoulder -28.627124 35.962871 -11.813700
LeftArm 41.839760 13.365890 -52.959429
LeftForeArm 36.732623 -0.000000 103.671326
LeftHand -11.309134 0.000000 -15.379419
LeftHandThumb1 -26.253704 0.000000 33.147579
Head 6.980416 -8.428709 -14.255932
2568
root 5.131557 38.286457 0.436702 2.490807 23.707970 38.089133
RightUpLeg 5.768592 -11.522392 -31.600122
RightLeg 25.178059 -0.000000 -0.000000
RightFoot -31.280253 -29.976255 19.094883
RightToeBase 8.215535 -0.000000 -0.000000
LeftUpLeg -51.330202 33.355410 3.237588
LeftLeg 111.739652 -0.000000 -0.000000
LeftFoot 19.708083 19.995246 -20.023463
LeftToeBase -1.536969 -0.000000 0.000000
Spine 21.493520 -5.503535 -22.312998
RightShoulder -1.145115 -13.761798 -22.420173
RightArm 12.733308 35.001995 41.172214
RightForeArm -12.528177 0.000000 118.624328
RightHand -7.437287 0.000000 9.130464
RightHandThumb1 -24.326973 -0.000000 -32.862282
LeftShoulder -28.627362 35.967499 -11.830505
LeftArm 41.816130 13.314828 -53.118714
LeftForeArm 36.661366 -0.000000 103.713371
LeftHand -11.562712 -0.000000 -15.042069
LeftHandThumb1 -26.253704 0.000000 33.147579
Head 6.839319 -8.471016 -14.288718
